<?xml version="1.0" encoding="iso-8859-1"?>
<!-- Generator: Adobe Illustrator 18.1.1, SVG Export Plug-In . SVG Version: 6.00 Build 0)  -->
<svg version="1.1" id="Capa_1" xmlns="http://www.w3.org/2000/svg" xmlns:xlink="http://www.w3.org/1999/xlink" x="0px" y="0px"
	 viewBox="0 0 44.961 44.961" style="enable-background:new 0 0 44.961 44.961;" xml:space="preserve">
<g>
	<path style="fill:#010002;" d="M31.397,11.566C31.397,5.179,29.074,0,22.48,0c-6.41,0-8.917,5.179-8.917,11.566
		c0,6.386,3.993,11.564,8.917,11.564C27.404,23.13,31.397,17.952,31.397,11.566z"/>
	<path style="fill:#010002;" d="M40.686,35.269c0.173-1.285,1-2.669,0.956-4.619c-0.063-2.74-1.597-5.309-3.273-7.312
		c-2.127-2.541-5.82-1.705-8.586,0.12c-1.836,1.211-4.272,8.205-7.303,8.177c-3.031,0.028-5.466-6.965-7.303-8.177
		c-2.766-1.824-6.458-2.661-8.585-0.121c-1.677,2.003-3.211,4.572-3.273,7.313c-0.045,1.95,0.667,3.355,0.955,4.619
		C7.163,47.94,38.913,48.44,40.686,35.269z"/>
</g>
<g>
</g>
<g>
</g>
<g>
</g>
<g>
</g>
<g>
</g>
<g>
</g>
<g>
</g>
<g>
</g>
<g>
</g>
<g>
</g>
<g>
</g>
<g>
</g>
<g>
</g>
<g>
</g>
<g>
</g>
</svg>
